<svg xmlns="http://www.w3.org/2000/svg" width="200" height="40" viewBox="0 614.3 998.4 386.4">
  <path fill="#FFFFFF" d="M360 934.1V974H27V641h333v38.9h26.7v-65.6H.3v386.4h386.4v-66.6H360m-35.8-204.2c6.7 0 13.1.7 19.4 2.2 6.2 1.4 12.1 3.5 17.4 6.2 5.4 2.8 10.2 6.1 14.6 10 4.4 3.9 8 8.3 11 13.2L366.3 775c-4.6-6.7-10.4-12-17.6-15.9s-15.3-5.8-24.4-5.8c-7.6 0-14.8 1.3-21.3 3.9-6.5 2.7-12.1 6.4-16.9 11.2-4.7 4.8-8.4 10.6-11.1 17.3-2.7 6.7-4 14.2-4 22.3 0 8.1 1.3 15.5 4 22.3 2.7 6.7 6.4 12.5 11.1 17.3s10.4 8.5 16.9 11.2c6.5 2.6 13.6 4 21.3 4 9 0 17.1-1.9 24.2-5.6 7.1-3.8 13-9.1 17.7-16l19.8 14.5c-3.2 4.7-7 9-11.3 12.7s-9.2 6.9-14.4 9.6c-5.3 2.7-10.9 4.7-17 6.1-6 1.4-12.4 2.1-19 2.1-11.5 0-22.2-2-31.8-5.9-9.7-3.9-18-9.3-25-16.3-6.9-6.9-12.4-15.2-16.2-24.7-3.9-9.5-5.8-19.9-5.8-31.2s1.9-21.6 5.8-31.2c3.9-9.5 9.3-17.8 16.2-24.7 7-7 15.3-12.4 25-16.3 9.5-4.1 20.2-6 31.7-6m96.3 153v-150h24.2V860h69.4v23l-93.6-.1m247 0l-14.8-38.3h-68l-14.8 38.3h-25.2l59.3-150h30.2L693.5 883l-26-.1zm-23.7-61.2L618.7 757l-25.1 64.7h50.2zM787 732.9c17.5 0 30.7 3.7 39.7 11.1s13.5 18.2 13.5 32.3c0 6.3-1.2 12.2-3.5 17.4-2.3 5.2-5.7 9.7-10 13.5-4.3 3.8-9.6 6.8-15.7 9-6.2 2.2-12.5 3.4-20.1 3.7l52.4 63.1h-30l-51.5-63.1h-5.1V883h-24.2V732.9H787zm-30.3 64.9h29.7c9.9 0 17.1-1.8 21.7-5.3 4.6-3.5 6.9-8.9 6.9-16.3 0-7.1-2.3-12.4-7.1-15.7-4.7-3.3-11.9-5-21.6-5h-29.7l.1 42.3zm149.9 21.1v64h-24.2v-150h24.2V796h-.2l56.4-63.1h31.3L926.6 806l72.1 76.9h-32.9l-59.7-64h.5"/>
</svg>
